<svg xmlns="http://www.w3.org/2000/svg" xmlns:xlink="http://www.w3.org/1999/xlink" contentStyleType="text/css" data-diagram-type="CLASS" height="1181px" preserveAspectRatio="none" style="width:3702px;height:1181px;background:#FFFFFF;" version="1.1" viewBox="0 0 3702 1181" width="3702px" zoomAndPan="magnify"><defs/><g><!--cluster models--><g class="cluster" data-entity="models" data-source-line="12" data-uid="ent0002" id="cluster_models"><polygon fill="#E3F2FD" points="1942,279.0137,1997.0137,279.0137,2004.0137,303.6348,3685,303.6348,3685,1174.0137,1942,1174.0137,1942,279.0137" style="stroke:#000000;stroke-width:1.5;"/><line style="stroke:#000000;stroke-width:1.5;" x1="1942" x2="2004.0137" y1="303.6348" y2="303.6348"/><text fill="#000000" font-family="sans-serif" font-size="14" font-weight="bold" lengthAdjust="spacing" textLength="49.0137" x="1946" y="296.1211">models</text><text fill="#000000" font-family="sans-serif" font-size="14" font-style="italic" lengthAdjust="spacing" textLength="53.7031" x="2790.6484" y="320.7422">&#171;Model&#187;</text></g><!--cluster com--><g class="cluster" data-entity="com" data-source-line="84" data-uid="ent0013" id="cluster_com"><polygon fill="#E3F2FD" points="16,6.0137,50.7861,6.0137,57.7861,30.6348,1918,30.6348,1918,694.5137,16,694.5137,16,6.0137" style="stroke:#000000;stroke-width:1.5;"/><line style="stroke:#000000;stroke-width:1.5;" x1="16" x2="57.7861" y1="30.6348" y2="30.6348"/><text fill="#000000" font-family="sans-serif" font-size="14" font-weight="bold" lengthAdjust="spacing" textLength="28.7861" x="20" y="23.1211">com</text></g><!--cluster AppWizards--><g class="cluster" data-entity="AppWizards" data-source-line="84" data-uid="ent0014" id="cluster_AppWizards"><polygon fill="#E3F2FD" points="40,51.0137,126.8896,51.0137,133.8896,75.6348,1894,75.6348,1894,670.5137,40,670.5137,40,51.0137" style="stroke:#000000;stroke-width:1.5;"/><line style="stroke:#000000;stroke-width:1.5;" x1="40" x2="133.8896" y1="75.6348" y2="75.6348"/><text fill="#000000" font-family="sans-serif" font-size="14" font-weight="bold" lengthAdjust="spacing" textLength="80.8896" x="44" y="68.1211">AppWizards</text></g><!--cluster QuickQuoteHail--><g class="cluster" data-entity="QuickQuoteHail" data-source-line="79" data-uid="ent0011" id="cluster_QuickQuoteHail"><polygon fill="#E3F2FD" points="64,96.0137,175.0205,96.0137,182.0205,120.6348,1870,120.6348,1870,646.5137,64,646.5137,64,96.0137" style="stroke:#000000;stroke-width:1.5;"/><line style="stroke:#000000;stroke-width:1.5;" x1="64" x2="182.0205" y1="120.6348" y2="120.6348"/><text fill="#000000" font-family="sans-serif" font-size="14" font-weight="bold" lengthAdjust="spacing" textLength="105.0205" x="68" y="113.1211">QuickQuoteHail</text><text fill="#000000" font-family="sans-serif" font-size="14" font-style="italic" lengthAdjust="spacing" textLength="110.4961" x="915.752" y="137.7422">&#171;Controller/View&#187;</text></g><!--class Invoice--><g class="entity" data-entity="Invoice" data-source-line="15" data-uid="ent0003" id="entity_Invoice"><rect fill="#F1F1F1" height="417.043" rx="2.5" ry="2.5" style="stroke:#181818;stroke-width:0.5;" width="215.0752" x="3453.5" y="741.0137"/><text fill="#000000" font-family="sans-serif" font-size="14" lengthAdjust="spacing" textLength="44.3584" x="3538.8584" y="761.1211">Invoice</text><line style="stroke:#181818;stroke-width:0.5;" x1="3454.5" x2="3667.5752" y1="769.6348" y2="769.6348"/><rect fill="none" height="6" style="stroke:#C82930;stroke-width:1;" width="6" x="3461.5" y="781.4453"/><text fill="#000000" font-family="sans-serif" font-size="14" lengthAdjust="spacing" textLength="143.1582" x="3473.5" y="788.7422">customerName : String</text><rect fill="none" height="6" style="stroke:#C82930;stroke-width:1;" width="6" x="3461.5" y="800.0664"/><text fill="#000000" font-family="sans-serif" font-size="14" lengthAdjust="spacing" textLength="129.1514" x="3473.5" y="807.3633">customerVIN : String</text><rect fill="none" height="6" style="stroke:#C82930;stroke-width:1;" width="6" x="3461.5" y="818.6875"/><text fill="#000000" font-family="sans-serif" font-size="14" lengthAdjust="spacing" textLength="113.6201" x="3473.5" y="825.9844">panelType : String</text><rect fill="none" height="6" style="stroke:#C82930;stroke-width:1;" width="6" x="3461.5" y="837.3086"/><text fill="#000000" font-family="sans-serif" font-size="14" lengthAdjust="spacing" textLength="147.0684" x="3473.5" y="844.6055">largestDentSize : String</text><rect fill="none" height="6" style="stroke:#C82930;stroke-width:1;" width="6" x="3461.5" y="855.9297"/><text fill="#000000" font-family="sans-serif" font-size="14" lengthAdjust="spacing" textLength="125.2754" x="3473.5" y="863.2266">numberOfDents : int</text><rect fill="none" height="6" style="stroke:#C82930;stroke-width:1;" width="6" x="3461.5" y="874.5508"/><text fill="#000000" font-family="sans-serif" font-size="14" lengthAdjust="spacing" textLength="133.8477" x="3473.5" y="881.8477">isAluminum : boolean</text><rect fill="none" height="6" style="stroke:#C82930;stroke-width:1;" width="6" x="3461.5" y="893.1719"/><text fill="#000000" font-family="sans-serif" font-size="14" lengthAdjust="spacing" textLength="137.7236" x="3473.5" y="900.4688">estimatedCost : String</text><rect fill="none" height="6" style="stroke:#C82930;stroke-width:1;" width="6" x="3461.5" y="911.793"/><text fill="#000000" font-family="sans-serif" font-size="14" lengthAdjust="spacing" textLength="157.1787" x="3473.5" y="919.0898">creationTimestamp : long</text><line style="stroke:#181818;stroke-width:0.5;" x1="3454.5" x2="3667.5752" y1="926.6035" y2="926.6035"/><ellipse cx="3464.5" cy="941.4141" fill="#84BE84" rx="3" ry="3" style="stroke:#038048;stroke-width:1;"/><text fill="#000000" font-family="sans-serif" font-size="14" lengthAdjust="spacing" textLength="175.0547" x="3473.5" y="945.7109">getCustomerName() : String</text><ellipse cx="3464.5" cy="960.0352" fill="#84BE84" rx="3" ry="3" style="stroke:#038048;stroke-width:1;"/><text fill="#000000" font-family="sans-serif" font-size="14" lengthAdjust="spacing" textLength="161.0479" x="3473.5" y="964.332">getCustomerVIN() : String</text><ellipse cx="3464.5" cy="978.6563" fill="#84BE84" rx="3" ry="3" style="stroke:#038048;stroke-width:1;"/><text fill="#000000" font-family="sans-serif" font-size="14" lengthAdjust="spacing" textLength="143.958" x="3473.5" y="982.9531">getPanelType() : String</text><ellipse cx="3464.5" cy="997.2773" fill="#84BE84" rx="3" ry="3" style="stroke:#038048;stroke-width:1;"/><text fill="#000000" font-family="sans-serif" font-size="14" lengthAdjust="spacing" textLength="180.5303" x="3473.5" y="1001.5742">getLargestDentSize() : String</text><ellipse cx="3464.5" cy="1015.8984" fill="#84BE84" rx="3" ry="3" style="stroke:#038048;stroke-width:1;"/><text fill="#000000" font-family="sans-serif" font-size="14" lengthAdjust="spacing" textLength="156.3857" x="3473.5" y="1020.1953">getNumberOfDents() : int</text><ellipse cx="3464.5" cy="1034.5195" fill="#84BE84" rx="3" ry="3" style="stroke:#038048;stroke-width:1;"/><text fill="#000000" font-family="sans-serif" font-size="14" lengthAdjust="spacing" textLength="143.1719" x="3473.5" y="1038.8164">isAluminum() : boolean</text><ellipse cx="3464.5" cy="1053.1406" fill="#84BE84" rx="3" ry="3" style="stroke:#038048;stroke-width:1;"/><text fill="#000000" font-family="sans-serif" font-size="14" lengthAdjust="spacing" textLength="168.0615" x="3473.5" y="1057.4375">getEstimatedCost() : String</text><ellipse cx="3464.5" cy="1071.7617" fill="#84BE84" rx="3" ry="3" style="stroke:#038048;stroke-width:1;"/><text fill="#000000" font-family="sans-serif" font-size="14" lengthAdjust="spacing" textLength="189.0752" x="3473.5" y="1076.0586">getCreationTimestamp() : long</text><ellipse cx="3464.5" cy="1090.3828" fill="#84BE84" rx="3" ry="3" style="stroke:#038048;stroke-width:1;"/><text fill="#000000" font-family="sans-serif" font-size="14" lengthAdjust="spacing" textLength="170.3994" x="3473.5" y="1094.6797">getFormattedDate() : String</text><ellipse cx="3464.5" cy="1109.0039" fill="#84BE84" rx="3" ry="3" style="stroke:#038048;stroke-width:1;"/><text fill="#000000" font-family="sans-serif" font-size="14" lengthAdjust="spacing" textLength="171.9648" x="3473.5" y="1113.3008">getCalculatedCost() : String</text><ellipse cx="3464.5" cy="1127.625" fill="#84BE84" rx="3" ry="3" style="stroke:#038048;stroke-width:1;"/><text fill="#000000" font-family="sans-serif" font-size="14" lengthAdjust="spacing" textLength="180.5029" x="3473.5" y="1131.9219">toJsonObject() : JSONObject</text><ellipse cx="3464.5" cy="1146.2461" fill="#84BE84" rx="3" ry="3" style="stroke:#038048;stroke-width:1;"/><text fill="#000000" font-family="sans-serif" font-size="14" lengthAdjust="spacing" textLength="105.8135" x="3473.5" y="1150.543">toString() : String</text></g><!--class Calculator--><g class="entity" data-entity="Calculator" data-source-line="38" data-uid="ent0004" id="entity_Calculator"><rect fill="#F1F1F1" height="100.4844" rx="2.5" ry="2.5" style="stroke:#181818;stroke-width:0.5;" width="706.0938" x="2963" y="350.0137"/><text fill="#000000" font-family="sans-serif" font-size="14" lengthAdjust="spacing" textLength="63.0273" x="3284.5332" y="370.1211">Calculator</text><line style="stroke:#181818;stroke-width:0.5;" x1="2964" x2="3668.0938" y1="378.6348" y2="378.6348"/><text fill="#000000" font-family="sans-serif" font-size="14" lengthAdjust="spacing" text-decoration="underline" textLength="406.1777" x="2969" y="397.7422">DENT_COSTS : Map&lt;String, Map&lt;String, Map&lt;String, String&gt;&gt;&gt;</text><line style="stroke:#181818;stroke-width:0.5;" x1="2964" x2="3668.0938" y1="405.2559" y2="405.2559"/><text fill="#000000" font-family="sans-serif" font-size="14" lengthAdjust="spacing" text-decoration="underline" textLength="512.0391" x="2983" y="424.3633">createDentSizeMap(q1:String, q2:String, q3:String, q4:String) : Map&lt;String,String&gt;</text><ellipse cx="2974" cy="438.6875" fill="#84BE84" rx="3" ry="3" style="stroke:#038048;stroke-width:1;"/><text fill="#000000" font-family="sans-serif" font-size="14" lengthAdjust="spacing" textLength="680.0938" x="2983" y="442.9844">getEstimatedCost(panelType:String, largestDentSize:String, numberOfDents:int, isAluminum:boolean) : String</text></g><!--class CustomerInvoiceSummary--><g class="entity" data-entity="CustomerInvoiceSummary" data-source-line="44" data-uid="ent0005" id="entity_CustomerInvoiceSummary"><rect fill="#F1F1F1" height="156.3477" rx="2.5" ry="2.5" style="stroke:#181818;stroke-width:0.5;" width="201.0547" x="3463.5" y="525.0137"/><text fill="#000000" font-family="sans-serif" font-size="14" lengthAdjust="spacing" textLength="164.9375" x="3481.5586" y="545.1211">CustomerInvoiceSummary</text><line style="stroke:#181818;stroke-width:0.5;" x1="3464.5" x2="3663.5547" y1="553.6348" y2="553.6348"/><rect fill="none" height="6" style="stroke:#C82930;stroke-width:1;" width="6" x="3471.5" y="565.4453"/><text fill="#000000" font-family="sans-serif" font-size="14" lengthAdjust="spacing" textLength="144.7441" x="3483.5" y="572.7422">invoices : List&lt;Invoice&gt;</text><line style="stroke:#181818;stroke-width:0.5;" x1="3464.5" x2="3663.5547" y1="580.2559" y2="580.2559"/><ellipse cx="3474.5" cy="595.0664" fill="#84BE84" rx="3" ry="3" style="stroke:#038048;stroke-width:1;"/><text fill="#000000" font-family="sans-serif" font-size="14" lengthAdjust="spacing" textLength="158.751" x="3483.5" y="599.3633">addInvoice(Invoice) : void</text><ellipse cx="3474.5" cy="613.6875" fill="#84BE84" rx="3" ry="3" style="stroke:#038048;stroke-width:1;"/><text fill="#000000" font-family="sans-serif" font-size="14" lengthAdjust="spacing" textLength="175.0547" x="3483.5" y="617.9844">getCustomerName() : String</text><ellipse cx="3474.5" cy="632.3086" fill="#84BE84" rx="3" ry="3" style="stroke:#038048;stroke-width:1;"/><text fill="#000000" font-family="sans-serif" font-size="14" lengthAdjust="spacing" textLength="161.0479" x="3483.5" y="636.6055">getCustomerVIN() : String</text><ellipse cx="3474.5" cy="650.9297" fill="#84BE84" rx="3" ry="3" style="stroke:#038048;stroke-width:1;"/><text fill="#000000" font-family="sans-serif" font-size="14" lengthAdjust="spacing" textLength="142.4063" x="3483.5" y="655.2266">getTotalCost() : double</text><ellipse cx="3474.5" cy="669.5508" fill="#84BE84" rx="3" ry="3" style="stroke:#038048;stroke-width:1;"/><text fill="#000000" font-family="sans-serif" font-size="14" lengthAdjust="spacing" textLength="174.3096" x="3483.5" y="673.8477">getInvoices() : List&lt;Invoice&gt;</text></g><!--class InvoiceManager--><g class="entity" data-entity="InvoiceManager" data-source-line="53" data-uid="ent0006" id="entity_InvoiceManager"><rect fill="#F1F1F1" height="111.1055" rx="2.5" ry="2.5" style="stroke:#181818;stroke-width:0.5;" width="400.2676" x="2319" y="344.5137"/><text fill="#000000" font-family="sans-serif" font-size="14" lengthAdjust="spacing" textLength="99.6133" x="2469.3271" y="364.6211">InvoiceManager</text><line style="stroke:#181818;stroke-width:0.5;" x1="2320" x2="2718.2676" y1="373.1348" y2="373.1348"/><ellipse cx="2330" cy="387.9453" fill="#84BE84" rx="3" ry="3" style="stroke:#038048;stroke-width:1;"/><text fill="#000000" font-family="sans-serif" font-size="14" lengthAdjust="spacing" textLength="212.4199" x="2339" y="392.2422">saveInvoice(ctx, inv:Invoice) : void</text><ellipse cx="2330" cy="406.5664" fill="#84BE84" rx="3" ry="3" style="stroke:#038048;stroke-width:1;"/><text fill="#000000" font-family="sans-serif" font-size="14" lengthAdjust="spacing" textLength="272.3301" x="2339" y="410.8633">saveAllInvoices(ctx, list:List&lt;Invoice&gt;) : void</text><ellipse cx="2330" cy="425.1875" fill="#84BE84" rx="3" ry="3" style="stroke:#038048;stroke-width:1;"/><text fill="#000000" font-family="sans-serif" font-size="14" lengthAdjust="spacing" textLength="227.2129" x="2339" y="429.4844">loadRawInvoices(ctx) : List&lt;Invoice&gt;</text><ellipse cx="2330" cy="443.8086" fill="#84BE84" rx="3" ry="3" style="stroke:#038048;stroke-width:1;"/><text fill="#000000" font-family="sans-serif" font-size="14" lengthAdjust="spacing" textLength="374.2676" x="2339" y="448.1055">loadGroupedInvoices(ctx) : List&lt;CustomerInvoiceSummary&gt;</text></g><!--class PanelInputData--><g class="entity" data-entity="PanelInputData" data-source-line="60" data-uid="ent0007" id="entity_PanelInputData"><rect fill="#F1F1F1" height="129.7266" rx="2.5" ry="2.5" style="stroke:#181818;stroke-width:0.5;" width="173.0684" x="2754.5" y="335.0137"/><text fill="#000000" font-family="sans-serif" font-size="14" lengthAdjust="spacing" textLength="96.5166" x="2792.7759" y="355.1211">PanelInputData</text><line style="stroke:#181818;stroke-width:0.5;" x1="2755.5" x2="2926.5684" y1="363.6348" y2="363.6348"/><ellipse cx="2765.5" cy="378.4453" fill="none" rx="3" ry="3" style="stroke:#038048;stroke-width:1;"/><text fill="#000000" font-family="sans-serif" font-size="14" lengthAdjust="spacing" textLength="113.6201" x="2774.5" y="382.7422">panelType : String</text><ellipse cx="2765.5" cy="397.0664" fill="none" rx="3" ry="3" style="stroke:#038048;stroke-width:1;"/><text fill="#000000" font-family="sans-serif" font-size="14" lengthAdjust="spacing" textLength="147.0684" x="2774.5" y="401.3633">largestDentSize : String</text><ellipse cx="2765.5" cy="415.6875" fill="none" rx="3" ry="3" style="stroke:#038048;stroke-width:1;"/><text fill="#000000" font-family="sans-serif" font-size="14" lengthAdjust="spacing" textLength="125.2754" x="2774.5" y="419.9844">numberOfDents : int</text><ellipse cx="2765.5" cy="434.3086" fill="none" rx="3" ry="3" style="stroke:#038048;stroke-width:1;"/><text fill="#000000" font-family="sans-serif" font-size="14" lengthAdjust="spacing" textLength="133.8477" x="2774.5" y="438.6055">isAluminum : boolean</text><ellipse cx="2765.5" cy="452.9297" fill="none" rx="3" ry="3" style="stroke:#038048;stroke-width:1;"/><text fill="#000000" font-family="sans-serif" font-size="14" lengthAdjust="spacing" textLength="137.7236" x="2774.5" y="457.2266">estimatedCost : String</text></g><!--class AuthManager--><g class="entity" data-entity="AuthManager" data-source-line="68" data-uid="ent0008" id="entity_AuthManager"><rect fill="#F1F1F1" height="73.8633" rx="2.5" ry="2.5" style="stroke:#181818;stroke-width:0.5;" width="325.5781" x="1958" y="363.0137"/><text fill="#000000" font-family="sans-serif" font-size="14" lengthAdjust="spacing" textLength="84.0547" x="2078.7617" y="383.1211">AuthManager</text><line style="stroke:#181818;stroke-width:0.5;" x1="1959" x2="2282.5781" y1="391.6348" y2="391.6348"/><ellipse cx="1969" cy="406.4453" fill="#84BE84" rx="3" ry="3" style="stroke:#038048;stroke-width:1;"/><text fill="#000000" font-family="sans-serif" font-size="14" lengthAdjust="spacing" textLength="282.4746" x="1978" y="410.7422">login(email:String, password:String) : boolean</text><ellipse cx="1969" cy="425.0664" fill="#84BE84" rx="3" ry="3" style="stroke:#038048;stroke-width:1;"/><text fill="#000000" font-family="sans-serif" font-size="14" lengthAdjust="spacing" textLength="299.5781" x="1978" y="429.3633">register(email:String, password:String) : boolean</text></g><!--class ActivityLogin--><g class="entity" data-entity="ActivityLogin" data-source-line="84" data-uid="ent0012" id="entity_ActivityLogin"><rect fill="#F1F1F1" height="28.6211" rx="2.5" ry="2.5" style="stroke:#181818;stroke-width:0.5;" width="84.5928" x="726.5" y="193.0137"/><text fill="#000000" font-family="sans-serif" font-size="14" lengthAdjust="spacing" textLength="78.5928" x="729.5" y="213.1211">ActivityLogin</text></g><!--class ActivityRegister--><g class="entity" data-entity="ActivityRegister" data-source-line="85" data-uid="ent0015" id="entity_ActivityRegister"><rect fill="#F1F1F1" height="28.6211" rx="2.5" ry="2.5" style="stroke:#181818;stroke-width:0.5;" width="102.4688" x="589" y="193.0137"/><text fill="#000000" font-family="sans-serif" font-size="14" lengthAdjust="spacing" textLength="96.4688" x="592" y="213.1211">ActivityRegister</text></g><!--class ActivityDashboard--><g class="entity" data-entity="ActivityDashboard" data-source-line="86" data-uid="ent0016" id="entity_ActivityDashboard"><rect fill="#F1F1F1" height="28.6211" rx="2.5" ry="2.5" style="stroke:#181818;stroke-width:0.5;" width="118.8271" x="846.5" y="193.0137"/><text fill="#000000" font-family="sans-serif" font-size="14" lengthAdjust="spacing" textLength="112.8271" x="849.5" y="213.1211">ActivityDashboard</text></g><!--class ActivityCalculator--><g class="entity" data-entity="ActivityCalculator" data-source-line="89" data-uid="ent0017" id="entity_ActivityCalculator"><rect fill="#F1F1F1" height="111.1055" rx="2.5" ry="2.5" style="stroke:#181818;stroke-width:0.5;" width="329.5156" x="1001" y="152.0137"/><text fill="#000000" font-family="sans-serif" font-size="14" lengthAdjust="spacing" textLength="107.3652" x="1112.0752" y="172.1211">ActivityCalculator</text><line style="stroke:#181818;stroke-width:0.5;" x1="1002" x2="1329.5156" y1="180.6348" y2="180.6348"/><ellipse cx="1012" cy="195.4453" fill="#84BE84" rx="3" ry="3" style="stroke:#038048;stroke-width:1;"/><text fill="#000000" font-family="sans-serif" font-size="14" lengthAdjust="spacing" textLength="220.2471" x="1021" y="199.7422">addPanelInputSection(String) : void</text><ellipse cx="1012" cy="214.0664" fill="#84BE84" rx="3" ry="3" style="stroke:#038048;stroke-width:1;"/><text fill="#000000" font-family="sans-serif" font-size="14" lengthAdjust="spacing" textLength="303.5156" x="1021" y="218.3633">removePanelInputSection(PanelInputData) : void</text><ellipse cx="1012" cy="232.6875" fill="#84BE84" rx="3" ry="3" style="stroke:#038048;stroke-width:1;"/><text fill="#000000" font-family="sans-serif" font-size="14" lengthAdjust="spacing" textLength="224.0889" x="1021" y="236.9844">calculateAndDisplayAllCosts() : void</text><ellipse cx="1012" cy="251.3086" fill="#84BE84" rx="3" ry="3" style="stroke:#038048;stroke-width:1;"/><text fill="#000000" font-family="sans-serif" font-size="14" lengthAdjust="spacing" textLength="257.5576" x="1021" y="255.6055">updateTotalEstimatedCostDisplay() : void</text></g><!--class ActivityInvoice--><g class="entity" data-entity="ActivityInvoice" data-source-line="96" data-uid="ent0018" id="entity_ActivityInvoice"><rect fill="#F1F1F1" height="92.4844" rx="2.5" ry="2.5" style="stroke:#181818;stroke-width:0.5;" width="473.3506" x="80.5" y="161.5137"/><text fill="#000000" font-family="sans-serif" font-size="14" lengthAdjust="spacing" textLength="88.6963" x="272.8271" y="181.6211">ActivityInvoice</text><line style="stroke:#181818;stroke-width:0.5;" x1="81.5" x2="552.8506" y1="190.1348" y2="190.1348"/><ellipse cx="91.5" cy="204.9453" fill="#84BE84" rx="3" ry="3" style="stroke:#038048;stroke-width:1;"/><text fill="#000000" font-family="sans-serif" font-size="14" lengthAdjust="spacing" textLength="195.3164" x="100.5" y="209.2422">loadAndDisplayInvoices() : void</text><ellipse cx="91.5" cy="223.5664" fill="#84BE84" rx="3" ry="3" style="stroke:#038048;stroke-width:1;"/><text fill="#000000" font-family="sans-serif" font-size="14" lengthAdjust="spacing" textLength="164.9375" x="100.5" y="227.8633">clearInvoiceHistory() : void</text><ellipse cx="91.5" cy="242.1875" fill="#84BE84" rx="3" ry="3" style="stroke:#038048;stroke-width:1;"/><text fill="#000000" font-family="sans-serif" font-size="14" lengthAdjust="spacing" textLength="447.3506" x="100.5" y="246.4844">onEmailInvoiceClick(summary:models.CustomerInvoiceSummary) : void</text></g><!--class CustomerGroupAdapter--><g class="entity" data-entity="CustomerGroupAdapter" data-source-line="102" data-uid="ent0019" id="entity_CustomerGroupAdapter"><rect fill="#F1F1F1" height="81.8633" rx="2.5" ry="2.5" style="stroke:#181818;stroke-width:0.5;" width="329.4404" x="116.5" y="359.0137"/><text fill="#000000" font-family="sans-serif" font-size="14" lengthAdjust="spacing" textLength="148.627" x="206.9067" y="379.1211">CustomerGroupAdapter</text><line style="stroke:#181818;stroke-width:0.5;" x1="117.5" x2="444.9404" y1="387.6348" y2="387.6348"/><rect fill="none" height="6" style="stroke:#C82930;stroke-width:1;" width="6" x="124.5" y="399.4453"/><text fill="#000000" font-family="sans-serif" font-size="14" lengthAdjust="spacing" textLength="303.4404" x="136.5" y="406.7422">emailClickListener : OnEmailInvoiceClickListener</text><line style="stroke:#181818;stroke-width:0.5;" x1="117.5" x2="444.9404" y1="414.2559" y2="414.2559"/><ellipse cx="127.5" cy="429.0664" fill="#84BE84" rx="3" ry="3" style="stroke:#038048;stroke-width:1;"/><text fill="#000000" font-family="sans-serif" font-size="14" lengthAdjust="spacing" textLength="231.0889" x="136.5" y="433.3633">getView(int, View, ViewGroup) : View</text></g><!--class OnEmailInvoiceClickListener--><g class="entity" data-entity="OnEmailInvoiceClickListener" data-source-line="107" data-uid="ent0020" id="entity_OnEmailInvoiceClickListener"><rect fill="#F1F1F1" height="55.2422" rx="2.5" ry="2.5" style="stroke:#181818;stroke-width:0.5;" width="473.3506" x="162.5" y="575.5137"/><text fill="#000000" font-family="sans-serif" font-size="14" font-style="italic" lengthAdjust="spacing" textLength="330.6953" x="233.8276" y="595.6211">CustomerGroupAdapter.OnEmailInvoiceClickListener</text><line style="stroke:#181818;stroke-width:0.5;" x1="163.5" x2="634.8506" y1="604.1348" y2="604.1348"/><ellipse cx="173.5" cy="618.9453" fill="#84BE84" rx="3" ry="3" style="stroke:#038048;stroke-width:1;"/><text fill="#000000" font-family="sans-serif" font-size="14" lengthAdjust="spacing" textLength="447.3506" x="182.5" y="623.2422">onEmailInvoiceClick(summary:models.CustomerInvoiceSummary) : void</text></g><!--class PdfGenerator--><g class="entity" data-entity="PdfGenerator" data-source-line="111" data-uid="ent0021" id="entity_PdfGenerator"><rect fill="#F1F1F1" height="55.2422" rx="2.5" ry="2.5" style="stroke:#181818;stroke-width:0.5;" width="486.5918" x="1366.5" y="180.0137"/><text fill="#000000" font-family="sans-serif" font-size="14" lengthAdjust="spacing" textLength="84.0479" x="1567.772" y="200.1211">PdfGenerator</text><line style="stroke:#181818;stroke-width:0.5;" x1="1367.5" x2="1852.0918" y1="208.6348" y2="208.6348"/><ellipse cx="1377.5" cy="223.4453" fill="#84BE84" rx="3" ry="3" style="stroke:#038048;stroke-width:1;"/><text fill="#000000" font-family="sans-serif" font-size="14" lengthAdjust="spacing" textLength="460.5918" x="1386.5" y="227.7422">generateInvoicePdf(ctx, summary:models.CustomerInvoiceSummary) : Uri</text></g><!--reverse link InvoiceManager to CustomerInvoiceSummary--><g class="link" data-entity-1="InvoiceManager" data-entity-2="CustomerInvoiceSummary" data-source-line="74" data-uid="lnk9" id="link_InvoiceManager_CustomerInvoiceSummary"><path codeLine="74" d="M2519,467.7437 C2519,506.0437 2519,538.0137 2519,538.0137 C2519,538.0137 3201.42,538.0137 3463.33,538.0137" fill="none" id="InvoiceManager-backto-CustomerInvoiceSummary" style="stroke:#181818;stroke-width:1;"/><polygon fill="none" points="2519,455.7437,2515,461.7437,2519,467.7437,2523,461.7437,2519,455.7437" style="stroke:#181818;stroke-width:1;"/></g><!--reverse link CustomerInvoiceSummary to Invoice--><g class="link" data-entity-1="CustomerInvoiceSummary" data-entity-2="Invoice" data-source-line="75" data-uid="lnk10" id="link_CustomerInvoiceSummary_Invoice"><path codeLine="75" d="M3564,693.2037 C3564,711.4737 3564,719.7737 3564,740.8137" fill="none" id="CustomerInvoiceSummary-backto-Invoice" style="stroke:#181818;stroke-width:1;"/><polygon fill="none" points="3564,681.2037,3560,687.2037,3564,693.2037,3568,687.2037,3564,681.2037" style="stroke:#181818;stroke-width:1;"/></g><!--link ActivityCalculator to PanelInputData--><g class="link" data-entity-1="ActivityCalculator" data-entity-2="PanelInputData" data-source-line="116" data-uid="lnk22" id="link_ActivityCalculator_PanelInputData"><path codeLine="116" d="M1331.19,254.0137 C1753.77,254.0137 2841,254.0137 2841,254.0137 C2841,254.0137 2841,289.8237 2841,328.7037" fill="none" id="ActivityCalculator-to-PanelInputData" style="stroke:#181818;stroke-width:1;"/><polygon fill="#181818" points="2841,334.7037,2845,325.7037,2841,329.7037,2837,325.7037,2841,334.7037" style="stroke:#181818;stroke-width:1;"/></g><!--link ActivityCalculator to Calculator--><g class="link" data-entity-1="ActivityCalculator" data-entity-2="Calculator" data-source-line="117" data-uid="lnk23" id="link_ActivityCalculator_Calculator"><path codeLine="117" d="M1331.14,245.0137 C1834.59,245.0137 3316,245.0137 3316,245.0137 C3316,245.0137 3316,298.4337 3316,343.6937" fill="none" id="ActivityCalculator-to-Calculator" style="stroke:#181818;stroke-width:1;"/><polygon fill="#181818" points="3316,349.6937,3320,340.6937,3316,344.6937,3312,340.6937,3316,349.6937" style="stroke:#181818;stroke-width:1;"/></g><!--link ActivityCalculator to InvoiceManager--><g class="link" data-entity-1="ActivityCalculator" data-entity-2="InvoiceManager" data-source-line="118" data-uid="lnk24" id="link_ActivityCalculator_InvoiceManager"><path codeLine="118" d="M1166,263.0337 C1166,302.6737 1166,349.0137 1166,349.0137 C1166,349.0137 1936.5,349.0137 2313,349.0137" fill="none" id="ActivityCalculator-to-InvoiceManager" style="stroke:#181818;stroke-width:1;"/><polygon fill="#181818" points="2319,349.0137,2310,345.0137,2314,349.0137,2310,353.0137,2319,349.0137" style="stroke:#181818;stroke-width:1;"/></g><!--link ActivityInvoice to InvoiceManager--><g class="link" data-entity-1="ActivityInvoice" data-entity-2="InvoiceManager" data-source-line="120" data-uid="lnk25" id="link_ActivityInvoice_InvoiceManager"><path codeLine="120" d="M526.5,253.6837 C526.5,297.2737 526.5,356.0137 526.5,356.0137 C526.5,356.0137 1807.56,356.0137 2312.83,356.0137" fill="none" id="ActivityInvoice-to-InvoiceManager" style="stroke:#181818;stroke-width:1;"/><polygon fill="#181818" points="2318.83,356.0137,2309.83,352.0137,2313.83,356.0137,2309.83,360.0137,2318.83,356.0137" style="stroke:#181818;stroke-width:1;"/></g><!--link ActivityInvoice to CustomerInvoiceSummary--><g class="link" data-entity-1="ActivityInvoice" data-entity-2="CustomerInvoiceSummary" data-source-line="121" data-uid="lnk26" id="link_ActivityInvoice_CustomerInvoiceSummary"><path codeLine="121" d="M499.5,253.6237 C499.5,349.8137 499.5,563.0137 499.5,563.0137 C499.5,563.0137 2928.3,563.0137 3457.35,563.0137" fill="none" id="ActivityInvoice-to-CustomerInvoiceSummary" style="stroke:#181818;stroke-width:1;"/><polygon fill="#181818" points="3463.35,563.0137,3454.35,559.0137,3458.35,563.0137,3454.35,567.0137,3463.35,563.0137" style="stroke:#181818;stroke-width:1;"/></g><!--link ActivityInvoice to CustomerGroupAdapter--><g class="link" data-entity-1="ActivityInvoice" data-entity-2="CustomerGroupAdapter" data-source-line="122" data-uid="lnk27" id="link_ActivityInvoice_CustomerGroupAdapter"><path codeLine="122" d="M281,253.6237 C281,285.6537 281,321.9737 281,352.8637" fill="none" id="ActivityInvoice-to-CustomerGroupAdapter" style="stroke:#181818;stroke-width:1;"/><polygon fill="#181818" points="281,358.8637,285,349.8637,281,353.8637,277,349.8637,281,358.8637" style="stroke:#181818;stroke-width:1;"/></g><!--link ActivityInvoice to OnEmailInvoiceClickListener--><g class="link" data-entity-1="ActivityInvoice" data-entity-2="OnEmailInvoiceClickListener" data-source-line="123" data-uid="lnk28" id="link_ActivityInvoice_OnEmailInvoiceClickListener"><path codeLine="123" d="M472.5,253.6537 C472.5,336.5937 472.5,490.4337 472.5,557.4237" fill="none" id="ActivityInvoice-to-OnEmailInvoiceClickListener" style="stroke:#181818;stroke-width:1;stroke-dasharray:7,7;"/><polygon fill="none" points="472.5,575.4237,478.5,557.4237,466.5,557.4237,472.5,575.4237" style="stroke:#181818;stroke-width:1;"/></g><!--link CustomerGroupAdapter to OnEmailInvoiceClickListener--><g class="link" data-entity-1="CustomerGroupAdapter" data-entity-2="OnEmailInvoiceClickListener" data-source-line="125" data-uid="lnk29" id="link_CustomerGroupAdapter_OnEmailInvoiceClickListener"><path codeLine="125" d="M304,441.0937 C304,481.0637 304,534.6837 304,569.3337" fill="none" id="CustomerGroupAdapter-to-OnEmailInvoiceClickListener" style="stroke:#181818;stroke-width:1;"/><polygon fill="#181818" points="304,575.3337,308,566.3337,304,570.3337,300,566.3337,304,575.3337" style="stroke:#181818;stroke-width:1;"/></g><!--link PdfGenerator to CustomerInvoiceSummary--><g class="link" data-entity-1="PdfGenerator" data-entity-2="CustomerInvoiceSummary" data-source-line="126" data-uid="lnk30" id="link_PdfGenerator_CustomerInvoiceSummary"><path codeLine="126" d="M1610,235.0437 C1610,316.5537 1610,551.0137 1610,551.0137 C1610,551.0137 3057.76,551.0137 3457.4,551.0137" fill="none" id="PdfGenerator-to-CustomerInvoiceSummary" style="stroke:#181818;stroke-width:1;"/><polygon fill="#181818" points="3463.4,551.0137,3454.4,547.0137,3458.4,551.0137,3454.4,555.0137,3463.4,551.0137" style="stroke:#181818;stroke-width:1;"/></g><!--link ActivityLogin to AuthManager--><g class="link" data-entity-1="ActivityLogin" data-entity-2="AuthManager" data-source-line="129" data-uid="lnk31" id="link_ActivityLogin_AuthManager"><path codeLine="129" d="M769,222.2837 C769,265.3937 769,388.0137 769,388.0137 C769,388.0137 1592.33,388.0137 1951.92,388.0137" fill="none" id="ActivityLogin-to-AuthManager" style="stroke:#181818;stroke-width:1;"/><polygon fill="#181818" points="1957.92,388.0137,1948.92,384.0137,1952.92,388.0137,1948.92,392.0137,1957.92,388.0137" style="stroke:#181818;stroke-width:1;"/></g><!--link ActivityRegister to AuthManager--><g class="link" data-entity-1="ActivityRegister" data-entity-2="AuthManager" data-source-line="130" data-uid="lnk32" id="link_ActivityRegister_AuthManager"><path codeLine="130" d="M663.25,222.2937 C663.25,269.4137 663.25,413.0137 663.25,413.0137 C663.25,413.0137 1571.06,413.0137 1951.67,413.0137" fill="none" id="ActivityRegister-to-AuthManager" style="stroke:#181818;stroke-width:1;"/><polygon fill="#181818" points="1957.67,413.0137,1948.67,409.0137,1952.67,413.0137,1948.67,417.0137,1957.67,413.0137" style="stroke:#181818;stroke-width:1;"/></g><!--link ActivityDashboard to InvoiceManager--><g class="link" data-entity-1="ActivityDashboard" data-entity-2="InvoiceManager" data-source-line="133" data-uid="lnk33" id="link_ActivityDashboard_InvoiceManager"><path codeLine="133" d="M906,222.1637 C906,258.9037 906,352.0137 906,352.0137 C906,352.0137 1880.81,352.0137 2312.79,352.0137" fill="none" id="ActivityDashboard-to-InvoiceManager" style="stroke:#181818;stroke-width:1;"/><polygon fill="#181818" points="2318.79,352.0137,2309.79,348.0137,2313.79,352.0137,2309.79,356.0137,2318.79,352.0137" style="stroke:#181818;stroke-width:1;"/></g><!--SRC=[hLPHSnet47xdLsZIX-31u6dIphIComm5d3Z5a1XgFtR4tHfKwwIBf3CbgVzxLtUwEzrnXzEPy012-wrsL_ljhlGZ4p5LD2BQ73ZWjsA1IIBUsR4G24InEP071ZpK_au4PYTnoyYO64asqXWPaP0f20oJegEBOpaJO0un4AbGnHF4D7YaMo1VEuJyBbK8QYAvL6J3KM3ty6UhP2B2RFz-nmnqdZkTr-Gt-o4to-bidgqx-M6H385hSdbvOnUZKNhwaStwqJ_CVhdwUVPh1x41frgJQ_4aMP3vHaYV18d6-40jQ0HaI5PuIM9RazrTB-gYc0hWQnjyJS2fse8sKn1cnRuSYKKIRK0j7wnSev09uoHCZtaICGJWzaPA3bGu4Px78ce0OzBco4a5r2PcpIB4qIX609TEt2DRC1ClnEvPLRy2m3WRvH_pO1kbysh4ZPY57tQAo0FlUO6d0Z_qL7VcHz_iV_qAKbJr4gwamaFmb2aUrNmAvK72smqP-K5BiTpyZOMGIZ-ibeliRu785AgwpoNvSXD8p8n_Nz5Tmu9dCfqjrdzDbglr2bLlQ7oPgP-thhFVqMXKFITb0-IvG8Nkvn-7kSxdD-NoRRdyoItFggQTXRP451LG75IZVh5VuVmG4t_kvNpeyjrwPOwRhcvNIHHHTIZAbsNRjfJcJ9jB1ykzfc7eThhkrzh1HVWTosCj3UK5PqAPR3YKKcStOttTn-UZndH31RQnd1yzekaJv244vfzp6_6mEHOB7NDU64pX72qEAsPhMbpIy9RkVQspbjkqq7VON6C86-7DkQh5cJQJQn4d1YkH5d6sDDJUwORQQsselVQ6scjlg9wVuyJiwidWSij45oBAUC7k6C5x779U4LMDATZYvO3wFtgf7wz9UaCAUDhTD6xLI2Bx_PO2GMnBvLWTj-MFtCboiRvTpkUpsnMv87VNi_jLRG07CXgCu_YUVQ4gr8DF2GiUFoNIm7iC2-VoH0gZ9EUWBkuOxBzzGh-zUdCrpGB-0o16G_b1cb3EjW8iLut4OjeLoN19mZV94pE7kKrCm_wjk_i6qPJgtKPYABMqE_5HgqwRIKdULVOSwfRPysfAGIIVu1XSvNvDASZdprY4KwPZJWzOpPQXMU_me4aS8YxjEvMcxDHyU4DerITGLjQbpKg_yjr3QkPSUe-NAjMX3f5YPYdkG1EE1EdgZ7R3xFasQ2PbixyvDcqvuv36fiW-lecifTI4RJqWK3GaosC7ScdPa2qvk-aKigliEpLXlR1_SYyG0-g1uaszQd9bSCBQAqBrAM-Ak__EL_OnV7Xdpw_mTfljv6C4CTbe-6OxVofMzgHxPWbFkWzSxZLEkxtOOn6Hz5NUtpCDPmXhgA9-V-JUy8Dg6Rm8BtTVX5RxOyV3vwHl1v_4jdRP9fqcjZH01uD_HoSfwpNnIWrO6wUfNk71os6aYRK3ZzYiUgwcVTK_m9kA7Ynlisr8DynSmyLMdWGxVBDXEy_Gf0k3xU0SEt-2K_p2FcQrJwDIjJrzpvt_0000]--></g></svg>